#!OML:ASF E:\Steps\Project 1\Capture day 1\Session 2\Subject.ASF
:FULLY-SPECIFIED
:DEGREES
181
root 17.0633 17.936 20.5205 -156.687 -6.98553 174.664
lowerback -26.0744 -2.28243 -6.7942
upperback 0.879511 -1.1415 -0.142737
thorax 15.1312 -1.12858 3.1274
lowerneck -4.85262 0.975809 -0.882004
upperneck 14.5414 0.636623 1.92291
head 5.15572 0.183616 0.761713
rclavicle 4.47266e-015 -3.97569e-016
rhumerus -38.8674 -21.1738 -74.8733
rradius 31.1315
rwrist -1.07151
rhand -6.93348 -50.795
rfingers 7.12502
rthumb 18.9348 -79.8934
lclavicle 4.47266e-015 -3.97569e-016
lhumerus -31.0963 2.9816 81.7943
lradius 26.0842
lwrist -3.1418
lhand -20.7007 -12.2995
lfingers 7.12502
lthumb 5.66333 17.6049
rfemur -21.4339 4.47802 19.4067
rtibia 13.1657
rfoot -22.4023 -3.7595
rtoes -9.03478
lfemur -41.1769 -10.5493 -23.9417
ltibia 49.0111
lfoot -8.87022 -4.53987
ltoes -21.9
182
root 17.0603 17.936 20.4989 -156.904 -6.9407 174.446
lowerback -26.0896 -2.22079 -6.9439
upperback 1.02515 -0.983013 -0.228647
thorax 15.2922 -1.06999 3.17509
lowerneck -4.95265 0.866549 -0.676106
upperneck 14.7814 0.480413 1.70696
head 5.25109 0.0998049 0.652139
rclavicle -7.15625e-015 9.34288e-015
rhumerus -38.924 -20.8065 -75.0513
rradius 31.4812
rwrist -1.48116
rhand -7.36891 -51.352
rfingers 7.12502
rthumb 18.516 -80.4908
lclavicle -7.15625e-015 9.34288e-015
lhumerus -30.9749 2.6214 81.9307
lradius 26.3157
lwrist -3.00164
lhand -20.9665 -12.4018
lfingers 7.12502
lthumb 5.40667 17.5093
rfemur -21.1541 4.54416 19.136
rtibia 13.2975
rfoot -22.5361 -3.89304
rtoes -8.71595
lfemur -41.833 -10.3247 -24.2621
ltibia 50.4509
lfoot -8.98094 -4.60565
ltoes -21.6849
183
root 17.0604 17.9414 20.4735 -157.458 -6.96629 174.339
lowerback -25.7492 -2.15426 -7.03501
upperback 1.21272 -0.859208 -0.268167
thorax 15.3305 -1.01762 3.23659
lowerneck -4.86929 0.993295 -0.815114
upperneck 14.7334 0.633029 1.95186
head 5.21822 0.182474 0.759855
rclavicle -1.00386e-014 1.41137e-014
rhumerus -38.9327 -20.8869 -74.9605
rradius 31.4216
rwrist -1.126
rhand -7.45323 -50.28
rfingers 7.12502
rthumb 18.4349 -79.4265
lclavicle -1.00386e-014 1.41137e-014
lhumerus -30.8888 2.51825 81.996
lradius 26.4542
lwrist -3.10395
lhand -21.0346 -12.8122
lfingers 7.12502
lthumb 5.34093 17.1005
rfemur -20.5138 4.75939 19.0473
rtibia 13.4862
rfoot -23.2032 -3.83546
rtoes -9.62764
lfemur -42.0687 -10.0734 -24.4285
ltibia 51.732
lfoot -9.29328 -4.32868
ltoes -22.9943
184
root 17.07 17.9422 20.4606 -157.879 -7.3396 174.584
lowerback -25.3569 -2.13534 -6.84957
upperback 0.966942 -0.916184 -0.238195
thorax 15.572 -1.04117 3.29136
lowerneck -4.83428 1.12343 -0.845848
upperneck 14.8346 0.783 2.08463
head 5.24041 0.258948 0.815004
rclavicle 1.49089e-015 -2.18663e-015
rhumerus -38.8612 -21.0869 -74.8557
rradius 31.1602
rwrist -0.654907
rhand -7.22993 -49.7586
rfingers 7.12502
rthumb 18.6497 -78.8846
lclavicle 1.49089e-015 -2.18663e-015
lhumerus -30.9195 2.27198 82.0469
lradius 26.7029
lwrist -3.03205
lhand -21.0201 -12.9856
lfingers 7.12502
lthumb 5.35496 16.9267
rfemur -19.9615 5.06387 19.4783
rtibia 13.464
rfoot -22.9377 -4.78265
rtoes -9.1397
lfemur -42.744 -9.80413 -24.0316
ltibia 53.2617
lfoot -9.71956 -4.20578
ltoes -22.4838
185
root 17.0714 17.9432 20.4389 -158.253 -7.38948 174.561
lowerback -25.153 -2.07289 -6.8695
upperback 1.09647 -0.824738 -0.237772
thorax 15.6033 -1.00062 3.34015
lowerneck -4.94128 1.11972 -0.663647
upperneck 15.0775 0.778429 1.84153
head 5.33648 0.246802 0.710071
rclavicle -3.12589e-014 1.0138e-014
rhumerus -38.7366 -21.1505 -74.818
rradius 31.0373
rwrist -0.727816
rhand -7.09659 -51.0161
rfingers 7.12502
rthumb 18.7779 -80.1298
lclavicle -3.12589e-014 1.0138e-014
lhumerus -30.8961 1.99818 82.1617
lradius 26.9293
lwrist -2.80701
lhand -21.1443 -12.9482
lfingers 7.12502
lthumb 5.23504 16.9671
rfemur -19.3405 5.11283 19.5362
rtibia 13.3333
rfoot -23.1214 -4.84043
rtoes -9.72536
lfemur -43.2732 -9.45108 -24.0662
ltibia 54.5492
lfoot -10.1074 -4.11643
ltoes -19.6153
186
root 17.0679 17.9371 20.4179 -158.368 -7.38768 174.486
lowerback -25.2332 -1.99659 -6.85202
upperback 1.15482 -0.712129 -0.266297
thorax 15.707 -0.950918 3.33885
lowerneck -4.92556 1.11409 -0.675936
upperneck 15.161 0.779313 1.74407
head 5.36012 0.23782 0.681846
rclavicle 1.25234e-014 1.59028e-014
rhumerus -38.6075 -21.4476 -74.6454
rradius 30.7782
rwrist -0.566459
rhand -6.96657 -51.165
rfingers 7.12502
rthumb 18.903 -80.2665
lclavicle 1.25234e-014 1.59028e-014
lhumerus -30.9241 1.92594 82.2275
lradius 27.1723
lwrist -2.73604
lhand -21.017 -13.1081
lfingers 7.12502
lthumb 5.35796 16.8041
rfemur -19.1201 4.99423 19.5103
rtibia 13.4649
rfoot -23.2718 -4.95058
rtoes -10.351
lfemur -44.0141 -9.23624 -24.1446
ltibia 55.5623
lfoot -10.314 -3.86083
ltoes -15.8304
187
root 17.0644 17.9337 20.3966 -158.443 -7.37939 174.345
lowerback -25.3153 -1.96942 -6.91752
upperback 1.19962 -0.640796 -0.301371
thorax 15.8017 -0.926371 3.3617
lowerneck -4.75926 1.21676 -0.909705
upperneck 15.1382 0.913545 1.90722
head 5.32025 0.298083 0.778241
rclavicle -4.02539e-015 -1.19271e-015
rhumerus -38.4408 -21.7165 -74.4733
rradius 30.4598
rwrist -0.161361
rhand -7.03157 -50.4041
rfingers 7.12502
rthumb 18.8405 -79.5117
lclavicle -4.02539e-015 -1.19271e-015
lhumerus -31.0471 2.01934 82.2173
lradius 27.495
lwrist -2.78036
lhand -20.8591 -13.1631
lfingers 7.12502
lthumb 5.51042 16.7452
rfemur -19.0379 5.09941 19.343
rtibia 13.5659
rfoot -23.2687 -5.19549
rtoes -9.78248
lfemur -44.729 -9.06152 -24.2772
ltibia 56.2296
lfoot -10.4585 -3.21353
ltoes -16.982
188
root 17.0608 17.9339 20.3693 -158.602 -7.18904 173.998
lowerback -25.3207 -1.96681 -7.24944
upperback 1.22784 -0.522155 -0.403553
thorax 15.8301 -0.899067 3.47697
lowerneck -4.5788 1.40399 -1.05556
upperneck 15.2156 1.13046 2.14248
head 5.30719 0.40399 0.887175
rclavicle 2.88238e-015 -2.34566e-014
rhumerus -38.3986 -21.5974 -74.4849
rradius 30.5249
rwrist -0.165807
rhand -6.95094 -51.1861
rfingers 7.12502
rthumb 18.918 -80.2862
lclavicle 2.88238e-015 -2.34566e-014
lhumerus -31.2213 2.0535 82.1615
lradius 27.7121
lwrist -2.68876
lhand -20.7974 -13.0146
lfingers 7.12502
lthumb 5.56997 16.8922
rfemur -18.8926 5.33699 18.8785
rtibia 13.6073
rfoot -23.2118 -5.22141
rtoes -8.51039
lfemur -45.1814 -8.81631 -24.6419
ltibia 56.617
lfoot -10.6572 -2.45736
ltoes -18.4907
189
root 17.0574 17.9312 20.3421 -158.766 -7.0171 173.69
lowerback -25.2875 -1.93153 -7.49908
upperback 1.19831 -0.3915 -0.540532
thorax 15.7611 -0.854856 3.50886
lowerneck -4.4611 1.57265 -0.857401
upperneck 15.4503 1.32379 2.04967
head 5.35912 0.492652 0.83642
rclavicle -9.93923e-017 -2.42517e-014
rhumerus -38.651 -21.945 -74.1579
rradius 30.1867
rwrist 0.179189
rhand -7.02107 -48.0739
rfingers 7.12502
rthumb 18.8506 -77.1805
lclavicle -9.93923e-017 -2.42517e-014
lhumerus -31.4446 1.96147 82.0605
lradius 27.7947
lwrist -2.58911
lhand -20.7793 -13.0245
lfingers 7.12502
lthumb 5.58748 16.8818
rfemur -18.7019 5.46135 18.5067
rtibia 13.786
rfoot -23.3693 -5.20893
rtoes -8.66555
lfemur -45.6681 -8.64655 -24.918
ltibia 57.1555
lfoot -11.067 -1.77298
ltoes -18.6397
190
root 17.0574 17.9291 20.3178 -158.881 -7.04519 173.573
lowerback -25.2953 -1.93186 -7.5806
upperback 1.17076 -0.365988 -0.581433
thorax 15.7294 -0.848058 3.51711
lowerneck -4.43766 1.60212 -0.528584
upperneck 15.828 1.34561 1.68746
head 5.47822 0.484661 0.671025
rclavicle -2.06736e-014 1.76918e-014
rhumerus -38.8263 -22.0302 -74.0535
rradius 30.3699
rwrist 0.591659
rhand -6.67014 -49.7892
rfingers 7.12502
rthumb 19.188 -78.8627
lclavicle -2.06736e-014 1.76918e-014
lhumerus -31.644 1.94859 82.0075
lradius 27.8569
lwrist -2.56305
lhand -20.7802 -13.2233
lfingers 7.12502
lthumb 5.58659 16.6831
rfemur -18.4913 5.59842 18.4213
rtibia 14.1008
rfoot -23.7954 -5.45486
rtoes -9.61154
lfemur -46.314 -8.55791 -24.8887
ltibia 57.7457
lfoot -12.1473 -1.43533
ltoes -22.8251
191
root 17.0598 17.931 20.2928 -159.016 -7.17348 173.485
lowerback -25.2785 -1.98096 -7.66553
upperback 1.5358 -0.402041 -0.509182
thorax 15.4198 -0.856216 3.49709
lowerneck -4.46758 1.54763 -0.328337
upperneck 16.1387 1.25084 1.48089
head 5.58466 0.425663 0.568305
rclavicle 6.55989e-015 2.78299e-015
rhumerus -38.7863 -21.7686 -74.2752
rradius 30.68
rwrist -0.222443
rhand -7.46978 -50.156
rfingers 7.12502
rthumb 18.419 -79.304
lclavicle 6.55989e-015 2.78299e-015
lhumerus -31.7135 1.92533 82.0063
lradius 27.855
lwrist -2.41733
lhand -20.7665 -13.5732
lfingers 7.12502
lthumb 5.59977 16.3328
rfemur -18.1909 5.77775 18.3923
rtibia 14.2382
rfoot -24.0215 -5.76874
rtoes -9.83303
lfemur -46.8861 -8.47652 -24.7581
ltibia 58.0251
lfoot -12.328 -1.02865
ltoes -23.6087
192
root 17.058 17.9311 20.2636 -159.174 -7.0698 173.242
lowerback -25.3679 -2.02173 -7.88946
upperback 1.62622 -0.367472 -0.537824
thorax 15.5671 -0.864297 3.59968
lowerneck -4.57466 1.43542 -0.291723
upperneck 16.3331 1.10332 1.32274
head 5.66657 0.340539 0.504647
rclavicle -3.39922e-014 2.62396e-014
rhumerus -38.6489 -21.9867 -74.0648
rradius 30.6677
rwrist 0.234399
rhand -6.04987 -51.1238
rfingers 7.12502
rthumb 19.7844 -80.1369
lclavicle -3.39922e-014 2.62396e-014
lhumerus -31.6737 1.95605 82.0238
lradius 27.707
lwrist -2.32024
lhand -20.7134 -13.8412
lfingers 7.12502
lthumb 5.65107 16.0634
rfemur -17.9495 5.86404 18.1329
rtibia 14.4033
rfoot -24.1158 -5.82753
rtoes -9.26863
lfemur -47.2987 -8.26986 -24.8596
ltibia 57.9321
lfoot -11.8029 -0.818813
ltoes -19.1542
